<?xml version="1.0" encoding="utf-8"?>
<!-- Generator: Adobe Illustrator 17.1.0, SVG Export Plug-In . SVG Version: 6.00 Build 0)  -->
<!DOCTYPE svg PUBLIC "-//W3C//DTD SVG 1.1//EN" "http://www.w3.org/Graphics/SVG/1.1/DTD/svg11.dtd">
<svg version="1.1" id="Layer_1" xmlns="http://www.w3.org/2000/svg" xmlns:xlink="http://www.w3.org/1999/xlink" x="0px" y="0px"
	 viewBox="111.5 0 628 315" enable-background="new 111.5 0 628 315" xml:space="preserve">
<g>
	<path fill="#E74C3C" d="M426.5,236.2c0,43.5-35.3,78.8-78.8,78.8H190.3c-43.5,0-78.8-35.3-78.8-78.8V78.8
		c0-43.5,35.2-78.8,78.8-78.8h157.5c43.5,0,78.8,35.3,78.8,78.8V236.2L426.5,236.2z M374,78.8c0-14.5-11.7-26.2-26.2-26.2H190.3
		c-14.5,0-26.2,11.7-26.2,26.2v157.5c0,14.5,11.7,26.2,26.2,26.2h157.5c14.5,0,26.2-11.7,26.2-26.2V78.8z"/>
	<path fill="#E74C3C" d="M628.8,295c-25.4,25.3-66.4,25.3-91.7,0l-91.7-91.7c-25.4-25.3-25.4-66.4,0-91.7L537.2,20
		c25.4-25.3,66.4-25.3,91.7,0l91.7,91.7c25.4,25.4,25.4,66.4,0,91.7L628.8,295z M689.9,172.8c8.4-8.4,8.4-22.1,0-30.6l-91.7-91.7
		c-8.4-8.4-22.1-8.4-30.6,0l-91.7,91.7c-8.4,8.4-8.4,22.1,0,30.6l91.7,91.7c8.4,8.4,22.1,8.4,30.6,0L689.9,172.8z"/>
</g>
</svg>
